<?xml version="1.0" standalone="no"?>
<!DOCTYPE svg PUBLIC "-//W3C//DTD SVG 20010904//EN"
 "http://www.w3.org/TR/2001/REC-SVG-20010904/DTD/svg10.dtd">
<svg version="1.0" xmlns="http://www.w3.org/2000/svg"
 width="1024.000000pt" height="1024.000000pt" viewBox="0 0 1024.000000 1024.000000"
 preserveAspectRatio="xMidYMid meet">

<g transform="translate(0.000000,1024.000000) scale(0.100000,-0.100000)"
fill="#000000" stroke="none">
<path d="M4105 8850 c-113 -12 -183 -31 -238 -64 -46 -28 -57 -41 -97 -121
-25 -49 -60 -128 -77 -175 -17 -47 -74 -197 -126 -335 -202 -533 -591 -1591
-973 -2645 -176 -485 -317 -870 -544 -1490 -78 -212 -175 -477 -215 -590 -40
-113 -93 -259 -118 -325 -76 -204 -187 -522 -208 -592 -48 -169 -10 -246 138
-279 91 -21 814 -32 989 -15 293 29 587 117 883 266 310 155 500 294 774 568
285 284 483 549 857 1147 173 277 481 736 610 909 552 741 1055 1148 1865
1506 343 152 880 341 1165 410 95 23 469 95 494 95 44 0 -103 51 -289 100
-239 63 -504 99 -795 107 -395 11 -716 -34 -1070 -149 -200 -65 -290 -102
-480 -198 -299 -150 -572 -329 -880 -578 -145 -117 -566 -541 -803 -809 -251
-282 -437 -474 -657 -677 -300 -277 -452 -404 -650 -544 -130 -91 -343 -215
-348 -202 -2 5 62 188 142 407 79 219 198 547 264 728 66 182 127 348 136 370
8 22 53 146 100 275 47 129 142 390 211 580 70 190 153 419 186 510 33 91 89
246 125 345 36 99 67 186 69 193 9 26 22 9 44 -55 52 -152 256 -736 296 -848
24 -66 47 -133 50 -148 4 -15 11 -27 16 -27 5 0 51 39 102 86 433 406 1072
835 1543 1038 150 64 383 146 415 146 10 0 21 5 25 11 11 19 -441 4 -621 -20
-113 -15 -462 -74 -558 -94 -5 -1 -88 221 -186 493 -97 272 -185 509 -194 526
-45 86 -102 125 -220 151 -59 13 -163 16 -577 18 -278 2 -537 0 -575 -5z"/>
<path d="M6449 5253 c-424 -431 -739 -851 -1059 -1417 -88 -155 -261 -489
-256 -494 2 -2 55 45 118 105 193 184 485 443 500 443 6 0 45 -113 211 -625
301 -925 297 -912 338 -959 76 -86 145 -96 709 -96 558 0 629 11 704 103 29
37 31 44 31 120 -1 86 -13 125 -158 527 -25 69 -93 260 -152 425 -200 562
-314 880 -390 1090 -100 273 -346 955 -352 978 -3 9 -11 17 -18 17 -6 0 -108
-98 -226 -217z"/>
</g>
</svg>
